<svg width="103" height="45" viewBox="0 0 103 45" fill="none" xmlns="http://www.w3.org/2000/svg">
<mask id="mask0_2285_12725" style="mask-type:luminance" maskUnits="userSpaceOnUse" x="15" y="0" width="33" height="45">
<path d="M15.0989 0H47.328V44.9167H15.0989V0Z" fill="white"/>
</mask>
<g mask="url(#mask0_2285_12725)">
<mask id="mask1_2285_12725" style="mask-type:luminance" maskUnits="userSpaceOnUse" x="15" y="0" width="33" height="45">
<path d="M22.7135 0H47.1093L39.4895 44.8229H15.0989L22.7135 0Z" fill="white"/>
</mask>
<g mask="url(#mask1_2285_12725)">
<path d="M15.0989 0H46.9947V44.75H15.0989V0Z" fill="#061C3D"/>
</g>
</g>
<mask id="mask2_2285_12725" style="mask-type:luminance" maskUnits="userSpaceOnUse" x="0" y="0" width="18" height="45">
<path d="M0 0H17.6094V44.9167H0V0Z" fill="white"/>
</mask>
<g mask="url(#mask2_2285_12725)">
<mask id="mask3_2285_12725" style="mask-type:luminance" maskUnits="userSpaceOnUse" x="0" y="0" width="18" height="45">
<path d="M7.61458 0H17.375L9.76042 44.8229H0L7.61458 0Z" fill="white"/>
</mask>
<g mask="url(#mask3_2285_12725)">
<path d="M0 0H17.6094V44.75H0V0Z" fill="#061C3D"/>
</g>
</g>
<mask id="mask4_2285_12725" style="mask-type:luminance" maskUnits="userSpaceOnUse" x="45" y="0" width="58" height="45">
<path d="M45.0989 0H102.698V44.9167H45.0989V0Z" fill="white"/>
</mask>
<g mask="url(#mask4_2285_12725)">
<mask id="mask5_2285_12725" style="mask-type:luminance" maskUnits="userSpaceOnUse" x="45" y="0" width="58" height="45">
<path d="M52.7135 0H102.292L94.677 44.8229H45.0989L52.7135 0Z" fill="white"/>
</mask>
<g mask="url(#mask5_2285_12725)">
<path d="M45.0989 0H102.224V44.75H45.0989V0Z" fill="#061C3D"/>
</g>
</g>
</svg>
